<mxfile host="65bd71144e">
    <diagram id="ziJ3AyZ-7SxFllRc0kR9" name="PÃ¡gina-1">
        <mxGraphModel dx="1012" dy="609" grid="1" gridSize="10" guides="1" tooltips="1" connect="1" arrows="1" fold="1" page="1" pageScale="1" pageWidth="827" pageHeight="1169" background="#ffffff" math="0" shadow="0">
            <root>
                <mxCell id="0"/>
                <mxCell id="1" parent="0"/>
                <mxCell id="6" value="flight" style="edgeStyle=none;html=1;entryX=0;entryY=0.5;entryDx=0;entryDy=0;entryPerimeter=0;strokeColor=#000000;fontColor=#000000;labelBackgroundColor=none;" parent="1" source="2" target="5" edge="1">
                    <mxGeometry relative="1" as="geometry">
                        <Array as="points">
                            <mxPoint x="250" y="120"/>
                        </Array>
                    </mxGeometry>
                </mxCell>
                <mxCell id="21" style="edgeStyle=none;html=1;strokeColor=#000000;fontColor=#000000;labelBackgroundColor=none;" parent="1" source="2" target="17" edge="1">
                    <mxGeometry relative="1" as="geometry">
                        <Array as="points">
                            <mxPoint x="550" y="210"/>
                            <mxPoint x="550" y="260"/>
                        </Array>
                    </mxGeometry>
                </mxCell>
                <mxCell id="2" value="ms-bookings" style="rounded=0;whiteSpace=wrap;html=1;fillColor=#1ba1e2;fontColor=#000000;strokeColor=#000000;labelBackgroundColor=none;" parent="1" vertex="1">
                    <mxGeometry x="190" y="180" width="120" height="60" as="geometry"/>
                </mxCell>
                <mxCell id="4" style="edgeStyle=none;html=1;entryX=0;entryY=0.5;entryDx=0;entryDy=0;strokeColor=#000000;fontColor=#000000;labelBackgroundColor=none;" parent="1" source="3" target="2" edge="1">
                    <mxGeometry relative="1" as="geometry"/>
                </mxCell>
                <mxCell id="3" value="Actor" style="shape=umlActor;verticalLabelPosition=bottom;verticalAlign=top;html=1;outlineConnect=0;strokeColor=#000000;fontColor=#000000;labelBackgroundColor=none;" parent="1" vertex="1">
                    <mxGeometry x="30" y="180" width="30" height="60" as="geometry"/>
                </mxCell>
                <mxCell id="10" value="fligth" style="edgeStyle=none;html=1;exitX=0.5;exitY=1;exitDx=0;exitDy=0;exitPerimeter=0;entryX=1;entryY=0.5;entryDx=0;entryDy=0;strokeColor=#000000;fontColor=#000000;labelBackgroundColor=none;" parent="1" source="5" target="7" edge="1">
                    <mxGeometry relative="1" as="geometry">
                        <Array as="points">
                            <mxPoint x="600" y="330"/>
                        </Array>
                    </mxGeometry>
                </mxCell>
                <mxCell id="13" value="hotel" style="edgeStyle=none;html=1;exitX=0.5;exitY=1;exitDx=0;exitDy=0;exitPerimeter=0;entryX=1;entryY=0.5;entryDx=0;entryDy=0;strokeColor=#000000;fontColor=#000000;labelBackgroundColor=none;" parent="1" source="5" target="8" edge="1">
                    <mxGeometry x="0.3455" relative="1" as="geometry">
                        <Array as="points">
                            <mxPoint x="600" y="420"/>
                        </Array>
                        <mxPoint as="offset"/>
                    </mxGeometry>
                </mxCell>
                <mxCell id="15" value="car" style="edgeStyle=none;html=1;entryX=1;entryY=0.5;entryDx=0;entryDy=0;strokeColor=#000000;fontColor=#000000;labelBackgroundColor=none;" parent="1" source="5" target="9" edge="1">
                    <mxGeometry x="0.5625" relative="1" as="geometry">
                        <Array as="points">
                            <mxPoint x="600" y="510"/>
                        </Array>
                        <mxPoint as="offset"/>
                    </mxGeometry>
                </mxCell>
                <mxCell id="22" value="booking" style="edgeStyle=none;html=1;exitX=0;exitY=0;exitDx=0;exitDy=15;exitPerimeter=0;entryX=0.25;entryY=0;entryDx=0;entryDy=0;strokeColor=#000000;fontColor=#000000;labelBackgroundColor=none;" parent="1" source="5" target="2" edge="1">
                    <mxGeometry relative="1" as="geometry">
                        <Array as="points">
                            <mxPoint x="220" y="95"/>
                        </Array>
                    </mxGeometry>
                </mxCell>
                <mxCell id="5" value="Kafka" style="shape=cylinder3;whiteSpace=wrap;html=1;boundedLbl=1;backgroundOutline=1;size=15;fillColor=#60a917;fontColor=#000000;strokeColor=#000000;labelBackgroundColor=none;" parent="1" vertex="1">
                    <mxGeometry x="570" y="80" width="60" height="80" as="geometry"/>
                </mxCell>
                <mxCell id="11" value="booking/hotel" style="edgeStyle=none;html=1;exitX=1;exitY=0.75;exitDx=0;exitDy=0;entryX=0.855;entryY=1;entryDx=0;entryDy=-4.35;entryPerimeter=0;strokeColor=#000000;fontColor=#000000;labelBackgroundColor=none;" parent="1" source="7" target="5" edge="1">
                    <mxGeometry x="-0.4804" relative="1" as="geometry">
                        <Array as="points">
                            <mxPoint x="621" y="345"/>
                        </Array>
                        <mxPoint as="offset"/>
                    </mxGeometry>
                </mxCell>
                <mxCell id="7" value="ms-fligths" style="rounded=0;whiteSpace=wrap;html=1;fillColor=#60a917;fontColor=#000000;strokeColor=#000000;labelBackgroundColor=none;" parent="1" vertex="1">
                    <mxGeometry x="190" y="300" width="120" height="60" as="geometry"/>
                </mxCell>
                <mxCell id="14" value="fligth/car" style="edgeStyle=none;html=1;exitX=1;exitY=0.75;exitDx=0;exitDy=0;entryX=0.855;entryY=1;entryDx=0;entryDy=-4.35;entryPerimeter=0;strokeColor=#000000;fontColor=#000000;labelBackgroundColor=none;" parent="1" source="8" target="5" edge="1">
                    <mxGeometry x="-0.5596" relative="1" as="geometry">
                        <Array as="points">
                            <mxPoint x="621" y="435"/>
                        </Array>
                        <mxPoint as="offset"/>
                    </mxGeometry>
                </mxCell>
                <mxCell id="8" value="ms-hotelreservations" style="rounded=0;whiteSpace=wrap;html=1;fillColor=#6a00ff;fontColor=#000000;strokeColor=#000000;labelBackgroundColor=none;" parent="1" vertex="1">
                    <mxGeometry x="190" y="390" width="120" height="60" as="geometry"/>
                </mxCell>
                <mxCell id="16" value="hotel/booking" style="edgeStyle=none;html=1;exitX=1;exitY=0.75;exitDx=0;exitDy=0;entryX=0.855;entryY=1;entryDx=0;entryDy=-4.35;entryPerimeter=0;strokeColor=#000000;fontColor=#000000;labelBackgroundColor=none;" parent="1" source="9" target="5" edge="1">
                    <mxGeometry x="-0.6173" relative="1" as="geometry">
                        <Array as="points">
                            <mxPoint x="620" y="525"/>
                        </Array>
                        <mxPoint as="offset"/>
                    </mxGeometry>
                </mxCell>
                <mxCell id="9" value="ms-carrentals" style="rounded=0;whiteSpace=wrap;html=1;fillColor=#d80073;fontColor=#000000;strokeColor=#000000;labelBackgroundColor=none;" parent="1" vertex="1">
                    <mxGeometry x="190" y="480" width="120" height="60" as="geometry"/>
                </mxCell>
                <mxCell id="17" value="db" style="shape=cylinder3;whiteSpace=wrap;html=1;boundedLbl=1;backgroundOutline=1;size=15;fillColor=#008a00;fontColor=#000000;strokeColor=#000000;labelBackgroundColor=none;" parent="1" vertex="1">
                    <mxGeometry x="700" y="220" width="60" height="80" as="geometry"/>
                </mxCell>
            </root>
        </mxGraphModel>
    </diagram>
</mxfile>